<svg xmlns="http://www.w3.org/2000/svg" viewBox="0 0 100 100" width="100px" height="100px">
  <circle cx="50" cy="50" r="7" fill="#39c1d7"/>
  <path fill="#39c1d7" d="M88.5,50c0-5.376-6.474-10.029-16.518-12.798c2.582-10.096,1.787-18.035-2.827-20.729	c-1.82-1.063-4.028-1.257-6.562-0.579C58.775,16.916,54.4,19.904,50,24.293c-4.4-4.389-8.775-7.376-12.593-8.399	c-2.534-0.679-4.742-0.484-6.562,0.579c-4.614,2.694-5.409,10.632-2.827,20.729C17.974,39.971,11.5,44.624,11.5,50	s6.474,10.029,16.518,12.799c-2.582,10.096-1.787,18.035,2.827,20.729c1.112,0.649,2.368,0.976,3.756,0.975	c0.883,0,1.82-0.132,2.806-0.396c3.818-1.023,8.193-4.01,12.593-8.399c4.4,4.389,8.775,7.376,12.593,8.399	c0.986,0.264,1.923,0.396,2.806,0.396c1.388,0,2.644-0.325,3.756-0.975c4.614-2.694,5.408-10.633,2.827-20.729	C82.026,60.029,88.5,55.376,88.5,50z M63.369,18.791c0.725-0.193,1.397-0.291,2.016-0.291c0.86,0,1.616,0.188,2.257,0.563	c3.092,1.806,3.723,8.42,1.42,17.411c-3.173-0.714-6.635-1.251-10.314-1.583c-2.159-3.113-4.405-5.947-6.668-8.429	C56.098,22.435,60.04,19.683,63.369,18.791z M60.755,56.299c-1.179,2.066-2.42,4.045-3.693,5.939C54.802,62.407,52.446,62.5,50,62.5	s-4.802-0.093-7.061-0.262c-1.273-1.894-2.514-3.873-3.693-5.939c-1.219-2.136-2.313-4.24-3.293-6.298	c0.98-2.058,2.074-4.162,3.293-6.299c1.18-2.067,2.42-4.046,3.694-5.94C45.199,37.593,47.554,37.5,50,37.5s4.801,0.093,7.061,0.262	c1.273,1.894,2.514,3.874,3.694,5.94c1.219,2.136,2.313,4.24,3.293,6.299C63.068,52.059,61.974,54.163,60.755,56.299z M65.644,53.545c1.041,2.461,1.901,4.83,2.597,7.082c-2.275,0.507-4.731,0.93-7.354,1.243c0.842-1.326,1.672-2.682,2.473-4.085	C64.171,56.366,64.928,54.951,65.644,53.545z M50,71.357c-1.636-1.809-3.269-3.812-4.864-5.979C46.728,65.455,48.348,65.5,50,65.5	s3.272-0.045,4.864-0.122C53.269,67.544,51.636,69.547,50,71.357z M39.112,61.87c-2.622-0.313-5.079-0.736-7.354-1.243	c0.696-2.252,1.556-4.622,2.597-7.082c0.716,1.406,1.474,2.821,2.284,4.24C37.441,59.189,38.27,60.545,39.112,61.87z M34.356,46.456	c-1.041-2.461-1.902-4.831-2.597-7.084c2.275-0.507,4.732-0.93,7.355-1.243c-0.843,1.326-1.672,2.683-2.473,4.086	C35.829,43.635,35.072,45.05,34.356,46.456z M50,28.644c1.636,1.809,3.269,3.812,4.864,5.979C53.272,34.545,51.652,34.5,50,34.5	s-3.272,0.045-4.864,0.122C46.731,32.456,48.364,30.453,50,28.644z M63.36,42.216c-0.801-1.404-1.631-2.76-2.473-4.086	c2.623,0.313,5.079,0.736,7.355,1.243c-0.696,2.253-1.556,4.622-2.597,7.084C64.928,45.05,64.171,43.635,63.36,42.216z M32.358,19.063C33,18.688,33.754,18.5,34.615,18.5c0.618,0,1.292,0.098,2.016,0.291c3.329,0.892,7.271,3.643,11.289,7.67	c-2.263,2.482-4.509,5.317-6.668,8.429c-3.679,0.332-7.142,0.869-10.314,1.583C28.635,27.482,29.266,20.868,32.358,19.063z M14.5,50	c0-3.596,5.401-7.44,14.335-9.901c0.969,3.159,2.241,6.486,3.806,9.901c-1.565,3.415-2.837,6.742-3.806,9.901	C19.901,57.44,14.5,53.596,14.5,50z M36.631,81.209c-1.733,0.462-3.17,0.371-4.273-0.271c-3.092-1.806-3.722-8.42-1.42-17.411	c3.172,0.714,6.635,1.251,10.313,1.583c2.159,3.113,4.405,5.947,6.668,8.43C43.902,77.566,39.96,80.317,36.631,81.209z M67.642,80.938c-1.103,0.644-2.539,0.734-4.273,0.271c-3.329-0.892-7.271-3.643-11.289-7.67c2.263-2.482,4.509-5.317,6.668-8.43	c3.679-0.332,7.141-0.869,10.313-1.583C71.365,72.518,70.734,79.132,67.642,80.938z M71.165,59.901	c-0.969-3.159-2.241-6.486-3.806-9.901c1.565-3.415,2.837-6.743,3.806-9.901C80.099,42.56,85.5,46.404,85.5,50	S80.099,57.44,71.165,59.901z"/>
</svg>
